<svg width="60" height="60" viewBox="0 0 60 60" fill="none" xmlns="http://www.w3.org/2000/svg">
<g clip-path="url(#clip0_2899_1481)">
<path d="M39.3172 30.6188L58.7154 11.2202C60.4279 9.50813 60.4279 6.72172 58.7154 5.00923L54.9901 1.28395C54.1638 0.457229 53.0606 0.00175415 51.8851 0.00175415C50.7091 0.00175415 49.6063 0.457229 48.7792 1.28395L41.3057 8.75786C41.2938 8.76838 41.2814 8.77845 41.27 8.79036C41.2586 8.8018 41.2485 8.8137 41.2375 8.82606L30.1326 19.9305C30.026 18.2514 29.8854 15.931 29.8557 14.891C29.7385 10.8343 28.2109 7.12227 25.5509 4.42329C25.5444 4.41688 25.5394 4.40956 25.533 4.40361C25.5289 4.39949 25.5248 4.39628 25.5211 4.39262C25.5069 4.37843 25.4932 4.36378 25.479 4.34959C23.327 2.20909 20.6175 0.790481 17.643 0.246658C14.7394 -0.284348 11.7745 0.0456995 9.06862 1.20109C8.80037 1.31599 8.60628 1.55632 8.55089 1.84288C8.4955 2.12944 8.58614 2.4247 8.79259 2.63115L17.4274 11.2659L11.2128 17.4805L2.59951 8.8668C2.3926 8.65989 2.09597 8.56926 1.80849 8.62556C1.52147 8.68187 1.28115 8.87779 1.16762 9.14787C0.0282489 11.8587 -0.284861 14.8241 0.261708 17.7236C0.821553 20.694 2.25435 23.3948 4.40355 25.5326C7.12175 28.2508 10.8658 29.8045 14.9458 29.9079C15.9722 29.934 18.2509 30.0544 19.9158 30.1473L5.85466 44.2089C5.78875 44.2748 5.73564 44.3485 5.6949 44.4272C5.68071 44.4552 5.66927 44.4813 5.65874 44.5078C5.65737 44.5101 2.86455 51.6416 2.86455 51.6416C2.86318 51.6443 2.86226 51.6471 2.86135 51.6498L0.06075 58.8001C-0.0665082 59.1251 0.0108538 59.495 0.258046 59.7417C0.425588 59.9097 0.650349 59.9994 0.879689 59.9994C0.987264 59.9994 1.09575 59.9798 1.19967 59.9386L8.35131 57.138C8.35314 57.1371 8.35543 57.1366 8.35726 57.1357L15.4897 54.3419C15.5181 54.331 15.5432 54.3195 15.5679 54.3067C15.6513 54.2641 15.725 54.211 15.7909 54.1451L33.0888 36.8476L48.456 52.2147C48.6221 52.3809 48.8464 52.4724 49.0776 52.4724C49.1275 52.4724 49.1779 52.4683 49.2282 52.4596C49.5097 52.4106 49.7501 52.2275 49.8723 51.9689C50.0884 51.5125 50.3795 51.0987 50.7384 50.7398C51.0881 50.3905 51.4909 50.1044 51.9359 49.8897C52.1922 49.7661 52.3726 49.5258 52.4202 49.2452C52.4678 48.9646 52.3767 48.678 52.1753 48.4766L36.8173 33.1187L38.0744 31.8616L56.953 50.7403C58.6659 52.4532 58.6664 55.241 56.953 56.9544C56.1231 57.7843 55.0194 58.2416 53.8457 58.2416C52.672 58.2416 51.5683 57.7843 50.7384 56.9544L33.7238 39.9398C33.3804 39.5969 32.8243 39.5969 32.4809 39.9398C32.1376 40.2831 32.1376 40.8398 32.4809 41.1826L49.4956 58.1972C50.6574 59.3595 52.2023 59.9994 53.8457 59.9994C55.4891 59.9994 57.034 59.3595 58.1958 58.1972C60.5945 55.7986 60.5945 51.8957 58.1958 49.497L39.3172 30.6188ZM15.1692 52.2811L7.71868 44.8305L38.5806 13.9681L46.0312 21.4187L15.1692 52.2811ZM8.23915 55.2941L4.70568 51.7602L6.80452 46.4016L13.5982 53.1953L8.23915 55.2941ZM41.893 10.6562L49.3436 18.1068L47.2745 20.1759L39.8239 12.7253L41.893 10.6562ZM50.022 2.52678C50.5168 2.03239 51.1787 1.75957 51.8851 1.75957C52.5914 1.75957 53.2529 2.03239 53.7477 2.52678L57.473 6.25252C58.4998 7.27928 58.4998 8.95057 57.473 9.9778L50.5864 16.8639L43.1358 9.41337L50.022 2.52678ZM11.0045 2.35695C15.3999 0.975417 20.174 1.97929 23.6488 5.04448L18.6702 10.0231L11.0045 2.35695ZM2.33217 11.0851L9.96996 18.7234L5.04396 23.6494C1.99984 20.1978 0.987263 15.4613 2.33217 11.0851ZM14.9903 28.1506C11.6774 28.0668 8.62276 26.9155 6.29 24.889L24.8853 6.29371C26.8697 8.60817 28.0036 11.6422 28.0983 14.9413C28.1413 16.4295 28.3945 20.3173 28.4787 21.5848L21.5816 28.4815C20.3255 28.4087 16.4656 28.1881 14.9903 28.1506ZM4.00621 53.5468L6.45296 55.9936L2.43105 57.5687L4.00621 53.5468ZM50.1451 48.9321C49.9162 49.1047 49.6993 49.2933 49.4956 49.497C49.2818 49.7108 49.0849 49.9387 48.906 50.179L34.3317 35.6043L35.5745 34.3615L50.1451 48.9321Z" fill="#9ED087"/>
<path d="M55.7106 55.7117C56.7388 54.684 56.7383 53.0109 55.7106 51.9832C55.2126 51.4851 54.5502 51.2109 53.8462 51.2109C53.1421 51.2109 52.4797 51.4851 51.9817 51.9832C50.954 53.0109 50.954 54.6835 51.9817 55.7117C52.4797 56.2097 53.1421 56.4839 53.8462 56.4839C54.5507 56.4839 55.2126 56.2097 55.7106 55.7117ZM53.2245 53.226C53.3907 53.0598 53.6113 52.9683 53.8462 52.9683C54.081 52.9683 54.3016 53.0598 54.4678 53.226C54.8102 53.5684 54.8102 54.1264 54.4678 54.4688C54.3016 54.635 54.081 54.7266 53.8462 54.7266C53.6113 54.7266 53.3907 54.635 53.2245 54.4688C52.8821 54.126 52.8821 53.5684 53.2245 53.226Z" fill="#9ED087"/>
<path d="M21.7509 13.1051C21.4076 12.7618 20.851 12.7618 20.5081 13.1051L13.0507 20.5626C12.8854 20.7274 12.793 20.9512 12.793 21.1842C12.793 21.4172 12.8854 21.6406 13.0507 21.8054L15.5363 24.2915C15.708 24.4627 15.9328 24.5488 16.1575 24.5488C16.3828 24.5488 16.6075 24.4632 16.7792 24.2915L19.2644 21.8063C19.2653 21.8049 24.2366 16.8341 24.2366 16.8341C24.4014 16.6693 24.4939 16.4454 24.4939 16.2124C24.4939 15.9794 24.4014 15.7561 24.2366 15.5913L21.7509 13.1051ZM18.6436 19.9414L17.4004 18.6981L18.6436 17.4553L19.8865 18.6981L18.6436 19.9414ZM16.1575 22.427L14.9147 21.1842L16.1575 19.9414L17.4008 21.1842L16.1575 22.427ZM21.1293 17.4553L19.8865 16.2124L21.1293 14.9696L22.3721 16.2124L21.1293 17.4553Z" fill="#9ED087"/>
</g>
<defs>
<clipPath id="clip0_2899_1481">
<rect width="60" height="60" fill="white"/>
</clipPath>
</defs>
</svg>
