<svg width="60" height="60" viewBox="0 0 60 60" fill="none" xmlns="http://www.w3.org/2000/svg">
<path d="M58.01 23.6543C58.4955 23.6543 58.8889 23.2608 58.8889 22.7754V17.2219C58.8889 15.1658 57.2155 13.493 55.1588 13.493H49.9732V8.6966C50.8438 8.3468 51.4608 7.49555 51.4608 6.50145V5.09121C51.4608 2.28387 49.177 0 46.3696 0H41.6816C38.8744 0 36.5907 2.28387 36.5907 5.09121V6.50145C36.5907 7.49543 37.2074 8.3468 38.0777 8.6966V13.493H32.8932C30.8364 13.493 29.1631 15.1657 29.1631 17.2219V25.0827H23.5193V23.6235C23.5193 21.4315 21.736 19.6482 19.544 19.6482C17.3521 19.6482 15.5687 21.4315 15.5687 23.6235V25.0827H8.6868C6.82703 25.0827 5.31402 26.5957 5.31402 28.4554V39.5313C5.31402 40.0167 5.70742 40.4102 6.19293 40.4102C6.67844 40.4102 7.07184 40.0167 7.07184 39.5313V36.6267C7.55184 36.8896 8.10215 37.0393 8.68691 37.0393H9.88691V37.9788C9.05371 38.0562 8.39898 38.7586 8.39898 39.6117V40.5097C8.39898 41.4144 9.13492 42.1504 10.0396 42.1504H14.5013C15.406 42.1504 16.1419 41.4144 16.1419 40.5097V39.6117C16.1419 38.7586 15.4872 38.0562 14.654 37.9788V37.0393H24.434V37.9788C23.6008 38.0562 22.9461 38.7586 22.9461 39.6117V40.5097C22.9461 41.4144 23.682 42.1504 24.5867 42.1504H29.0482C29.9529 42.1504 30.6889 41.4144 30.6889 40.5097V39.6117C30.6889 38.7586 30.0343 38.0563 29.2011 37.9788V37.0393H30.4018C30.9863 37.0393 31.5365 36.8897 32.0162 36.6268V56.6272C32.0162 57.5177 31.2917 58.2421 30.4013 58.2421H8.68668C7.79617 58.2421 7.07184 57.5176 7.07184 56.6272V43.6541C7.07184 43.1687 6.67844 42.7752 6.19293 42.7752C5.70742 42.7752 5.31402 43.1687 5.31402 43.6541V44.5404H4.48398C2.62434 44.5404 1.11133 46.0534 1.11133 47.913V53.0462C1.11133 54.906 2.62434 56.4189 4.48398 56.4189H5.31402V56.6273C5.31402 58.4871 6.82703 60 8.68668 60H30.4013C32.2611 60 33.7741 58.487 33.7741 56.6273V56.4189H34.4962V57.5051C34.4962 58.8329 35.5765 59.9133 36.9045 59.9133C38.2323 59.9133 39.3127 58.8329 39.3127 57.5051V55.9277H48.7387V57.5046C48.7387 58.8327 49.8191 59.913 51.1471 59.913C52.4752 59.913 53.5557 58.8326 53.5557 57.5046V55.9277H55.1589C57.2157 55.9277 58.889 54.255 58.889 52.1988V26.9273C58.889 26.442 58.4956 26.0484 58.0101 26.0484C57.5246 26.0484 57.1312 26.442 57.1312 26.9273V52.1988C57.1312 53.2856 56.2464 54.1699 55.1589 54.1699H37.7834C37.9081 53.8182 37.9766 53.4401 37.9766 53.0462V47.913C37.9766 46.9201 37.545 46.0262 36.86 45.4084V18.423C36.86 17.9377 36.4666 17.5441 35.9811 17.5441C35.4955 17.5441 35.1021 17.9377 35.1021 18.423V44.5774C34.9395 44.5533 34.7732 44.5404 34.604 44.5404H33.7741V28.4554C33.7741 26.7722 32.5348 25.3733 30.9208 25.1228V17.2219C30.9208 16.1351 31.8055 15.2508 32.893 15.2508H55.1587C56.2462 15.2508 57.1309 16.135 57.1309 17.2219V22.7754C57.1311 23.2608 57.5245 23.6543 58.01 23.6543ZM4.48398 54.6611C3.59348 54.6611 2.86914 53.9366 2.86914 53.0462V47.913C2.86914 47.0225 3.59359 46.2982 4.48398 46.2982H5.31402V54.6611H4.48398ZM27.4432 36.1514C27.4432 36.1545 27.4428 36.1574 27.4428 36.1604C27.4428 36.1635 27.4432 36.1664 27.4432 36.1695V37.971H26.1918V26.8404H27.4432V36.1514ZM17.3266 23.6235C17.3266 22.4007 18.3212 21.4061 19.544 21.4061C20.7668 21.4061 21.7615 22.4009 21.7615 23.6235V25.0827H17.3266V23.6235ZM12.8962 37.9712H11.6447V26.8406H12.8962V37.9712ZM8.68691 35.2816C7.79629 35.2816 7.07184 34.5572 7.07184 33.6668V28.4554C7.07184 27.5648 7.79641 26.8405 8.6868 26.8405H9.88691V35.2816H8.68691ZM14.3841 40.3927H10.1568V39.729H14.3841V40.3927ZM14.654 35.2816V26.8405H24.434V35.2816H14.654ZM28.9311 40.3927H24.7039V39.729H28.9311V40.3927ZM37.5549 57.5051C37.5549 57.8637 37.2632 58.1555 36.9045 58.1555C36.5458 58.1555 36.254 57.8637 36.254 57.5051V55.9861C36.2879 55.967 36.3217 55.948 36.3549 55.9277H37.5549V57.5051ZM51.7977 57.5046C51.7977 57.8634 51.5058 58.1552 51.147 58.1552C50.7882 58.1552 50.4964 57.8633 50.4964 57.5046V55.9277H51.7976L51.7977 57.5046ZM34.604 46.2982C35.4945 46.2982 36.2188 47.0227 36.2188 47.913V53.0462C36.2188 53.9367 35.4944 54.6611 34.604 54.6611H33.7741V46.2982H34.604ZM32.0162 28.4554V33.6668C32.0162 34.5572 31.2919 35.2816 30.4018 35.2816H29.2011V26.8405H30.4015C31.2918 26.8405 32.0162 27.565 32.0162 28.4554ZM38.3484 5.09121C38.3484 3.25312 39.8437 1.75781 41.6815 1.75781H46.3695C48.2076 1.75781 49.7029 3.25324 49.7029 5.09121V6.50145C49.7029 6.83695 49.4298 7.10988 49.0942 7.10988C48.7587 7.10988 48.4857 6.83695 48.4857 6.50145V5.09121C48.4857 3.92438 47.5363 2.97504 46.3695 2.97504H41.6815C40.5148 2.97504 39.5656 3.92438 39.5656 5.09121V6.50145C39.5656 6.83695 39.2923 7.10988 38.9564 7.10988C38.6212 7.10988 38.3484 6.83695 38.3484 6.50145V5.09121ZM39.8355 8.69672C40.7063 8.34691 41.3235 7.49566 41.3235 6.50145V5.09121C41.3235 4.89363 41.4842 4.73285 41.6816 4.73285H46.3696C46.5672 4.73285 46.728 4.89363 46.728 5.09121V6.50145C46.728 7.49555 47.345 8.34691 48.2154 8.6966V13.493H39.8355V8.69672Z" fill="#9ED087"/>
<path d="M40.4648 18.4219V49.302C40.4648 49.7873 40.8582 50.1809 41.3438 50.1809C41.8293 50.1809 42.2227 49.7873 42.2227 49.302V18.4219C42.2227 17.9365 41.8293 17.543 41.3438 17.543C40.8582 17.543 40.4648 17.9365 40.4648 18.4219Z" fill="#9ED087"/>
<path d="M45.8281 18.4219V49.302C45.8281 49.7873 46.2215 50.1809 46.707 50.1809C47.1925 50.1809 47.5859 49.7873 47.5859 49.302V18.4219C47.5859 17.9365 47.1925 17.543 46.707 17.543C46.2215 17.543 45.8281 17.9365 45.8281 18.4219Z" fill="#9ED087"/>
<path d="M51.1914 18.4219V49.302C51.1914 49.7873 51.5848 50.1809 52.0703 50.1809C52.5558 50.1809 52.9492 49.7873 52.9492 49.302V18.4219C52.9492 17.9365 52.5558 17.543 52.0703 17.543C51.5848 17.543 51.1914 17.9365 51.1914 18.4219Z" fill="#9ED087"/>
<path d="M26.8212 55.0787C27.9934 55.0787 28.9471 54.125 28.9471 52.9529V46.5125C28.9471 45.3404 27.9934 44.3867 26.8212 44.3867H12.2664C11.0943 44.3867 10.1406 45.3404 10.1406 46.5125V52.9529C10.1406 54.125 11.0943 55.0787 12.2664 55.0787H26.8212ZM11.8984 52.9529V46.5125C11.8984 46.3097 12.0634 46.1445 12.2664 46.1445H26.8212C27.0241 46.1445 27.1893 46.3097 27.1893 46.5125V52.9529C27.1893 53.1557 27.0242 53.3209 26.8212 53.3209H12.2664C12.0634 53.3209 11.8984 53.1557 11.8984 52.9529Z" fill="#9ED087"/>
</svg>
