<svg width="60" height="60" viewBox="0 0 60 60" fill="none" xmlns="http://www.w3.org/2000/svg">
<path d="M57.9492 12.5344H56.6337V6.71367C56.6337 5.83359 55.9177 5.11758 55.0376 5.11758H47.2922V1.86797C47.2922 0.837891 46.4548 0 45.4254 0H41.8898C41.4043 0 41.0109 0.393398 41.0109 0.878906C41.0109 1.36441 41.4043 1.75781 41.8898 1.75781H45.4254C45.4855 1.75781 45.5344 1.80727 45.5344 1.86797V29.3538H40.5989C40.7066 29.0633 40.7657 28.7493 40.7657 28.4217V26.9221H41.8237C42.9053 26.9221 43.785 26.0422 43.785 24.9608V17.3963C43.785 16.3147 42.9052 15.435 41.8237 15.435H40.7716L38.7942 9.10113C38.3889 7.80211 37.2021 6.92941 35.8412 6.92941H24.1588C22.798 6.92941 21.6112 7.80211 21.2058 9.10102L19.2285 15.435H18.1763C17.0948 15.435 16.215 16.3148 16.215 17.3963V24.9608C16.215 26.0423 17.0948 26.9221 18.1763 26.9221H19.2343V28.4217C19.2343 28.7493 19.2934 29.0633 19.4011 29.3538H14.4949V13.5715C14.4949 13.086 14.1014 12.6926 13.616 12.6926C13.1306 12.6926 12.7371 13.086 12.7371 13.5715V30.8443H5.15391V6.87539H12.737V9.46992C12.737 9.95543 13.1305 10.3488 13.6159 10.3488C14.1013 10.3488 14.4948 9.95543 14.4948 9.46992V1.86797C14.4948 1.80715 14.5443 1.75781 14.605 1.75781H37.7882C38.2737 1.75781 38.6671 1.36441 38.6671 0.878906C38.6671 0.393398 38.2737 0 37.7882 0H14.6051C13.575 0 12.7371 0.837891 12.7371 1.86797V5.11758H4.9923C4.11223 5.11758 3.39621 5.83359 3.39621 6.71367V12.5344H2.05078C0.920039 12.5344 0 13.4544 0 14.5852V36.8742C0 37.3597 0.393516 37.7531 0.878906 37.7531C1.3643 37.7531 1.75781 37.3597 1.75781 36.8742V14.5852C1.75781 14.4236 1.8893 14.2922 2.05078 14.2922H3.39609V31.0058C3.39609 31.886 4.11211 32.602 4.99219 32.602H12.737V35.8523C12.737 36.8816 13.5749 37.7191 14.605 37.7191H45.4253C46.4545 37.7191 47.2921 36.8817 47.2921 35.8523V32.602H55.0376C55.9177 32.602 56.6337 31.886 56.6337 31.0058V14.2922H57.9492C58.1108 14.2922 58.2422 14.4236 58.2422 14.5852V49.2727C58.2422 49.4343 58.1108 49.5656 57.9492 49.5656H50.3707C49.8852 49.5656 49.4918 49.959 49.4918 50.4445C49.4918 50.93 49.8852 51.3234 50.3707 51.3234H57.9492C59.08 51.3234 60 50.4034 60 49.2727V14.5852C60 13.4544 59.08 12.5344 57.9492 12.5344ZM39.0077 28.4217C39.0077 28.9357 38.5896 29.3538 38.0756 29.3538H36.3943C35.8804 29.3538 35.4622 28.9357 35.4622 28.4217V26.9221H39.0077V28.4217ZM26.2956 26.9221H33.7045V28.4217C33.7045 28.7493 33.7636 29.0633 33.8713 29.3538H26.1289C26.2366 29.0633 26.2957 28.7493 26.2957 28.4217L26.2956 26.9221ZM42.0272 17.3963V19.3973H38.7631C38.4052 19.3973 38.1141 19.1063 38.1141 18.7484V17.1928H41.8237C41.9359 17.1928 42.0272 17.2841 42.0272 17.3963ZM22.8837 9.62496C23.0588 9.0641 23.5712 8.68723 24.1588 8.68723H35.8412C36.4289 8.68723 36.9412 9.06398 37.1163 9.62496L38.9302 15.435H33.0778L35.409 12.9554C35.7416 12.6016 35.7244 12.0455 35.3708 11.713C35.0173 11.3804 34.461 11.3977 34.1284 11.7512L30.665 15.435H27.264L29.5952 12.9554C29.9277 12.6016 29.9106 12.0455 29.5569 11.713C29.2032 11.3805 28.6471 11.3978 28.3145 11.7512L24.8511 15.435H21.0698L22.8837 9.62496ZM18.1763 17.1928H21.8861V18.7484C21.8861 19.1063 21.595 19.3973 21.2371 19.3973H17.9728V17.3963C17.9728 17.2841 18.0641 17.1928 18.1763 17.1928ZM17.9728 24.9608V21.1552H21.2371C22.5642 21.1552 23.6439 20.0755 23.6439 18.7484V17.1928H36.3561V18.7484C36.3561 20.0755 37.4358 21.1552 38.7629 21.1552H42.0271V24.9608C42.0271 25.073 41.9358 25.1643 41.8236 25.1643H18.1763C18.0641 25.1643 17.9728 25.073 17.9728 24.9608ZM20.9921 28.4217V26.9221H24.5377V28.4217C24.5377 28.9357 24.1195 29.3538 23.6055 29.3538H21.9243C21.4104 29.3538 20.9921 28.9357 20.9921 28.4217ZM45.4254 35.9613H14.6051C14.5444 35.9613 14.4949 35.9125 14.4949 35.8523V31.1116H45.5344V35.8523C45.5344 35.9135 45.4864 35.9613 45.4254 35.9613ZM54.8759 30.8442H47.2922V6.87539H54.876V30.8442H54.8759Z" fill="#9ED087"/>
<path d="M43.8982 54.9571H32.5219V51.3242H46.2691C46.7546 51.3242 47.148 50.9308 47.148 50.4453C47.148 49.9598 46.7546 49.5664 46.2691 49.5664H2.05078C1.8893 49.5664 1.75781 49.435 1.75781 49.2734V40.9766C1.75781 40.4911 1.3643 40.0977 0.878906 40.0977C0.393516 40.0977 0 40.4911 0 40.9766V49.2734C0 50.4042 0.920039 51.3242 2.05078 51.3242H27.4781V54.9571H16.1018C14.3095 54.9571 12.8514 56.4153 12.8514 58.2076C12.8514 59.1964 13.6557 60.0008 14.6446 60.0008H45.3554C46.3443 60.0008 47.1486 59.1964 47.1486 58.2076C47.1486 56.4153 45.6905 54.9571 43.8982 54.9571ZM29.2359 51.3242H30.7639V54.9571H29.2359V51.3242ZM45.3554 58.243H14.6446C14.625 58.243 14.6092 58.227 14.6092 58.2076C14.6092 57.3846 15.2788 56.715 16.1018 56.715H43.8981C44.7211 56.715 45.3907 57.3846 45.3907 58.2076C45.3908 58.227 45.3749 58.243 45.3554 58.243Z" fill="#9ED087"/>
<path d="M10.5423 14.2778C10.1519 13.9891 9.60163 14.0716 9.313 14.4619L6.88897 17.7404C6.6594 18.0508 6.6594 18.475 6.88897 18.7855L9.313 22.0639C9.48538 22.297 9.75116 22.4203 10.0205 22.4203C10.202 22.4203 10.3851 22.3642 10.5423 22.248C10.9326 21.9595 11.015 21.4092 10.7265 21.0188L8.68886 18.2629L10.7265 15.507C11.0151 15.1167 10.9326 14.5663 10.5423 14.2778Z" fill="#9ED087"/>
<path d="M51.3408 18.2628L49.3031 21.0187C49.0145 21.4091 49.097 21.9594 49.4872 22.2479C49.6445 22.3642 49.8276 22.4202 50.0091 22.4202C50.2784 22.4202 50.544 22.2969 50.7164 22.0638L53.1404 18.7854C53.3701 18.475 53.3701 18.0507 53.1404 17.7403L50.7164 14.4619C50.4279 14.0718 49.8776 13.989 49.4872 14.2778C49.097 14.5663 49.0145 15.1166 49.3031 15.5069L51.3408 18.2628Z" fill="#9ED087"/>
<path d="M34.2161 42.5047C34.0768 42.0757 33.7332 41.7505 33.2971 41.6352L31.8896 41.2624L31.1003 40.0392C30.8559 39.6601 30.4406 39.4337 29.9894 39.4336C29.5382 39.4336 29.1228 39.66 28.8783 40.039L28.089 41.2623L26.6817 41.6351C26.2456 41.7504 25.902 42.0755 25.7626 42.5045C25.6231 42.9334 25.71 43.3984 25.995 43.7483L26.9145 44.8771L26.834 46.3308C26.8092 46.7811 27.0121 47.2083 27.3771 47.4735C27.7419 47.7386 28.2108 47.7996 28.6317 47.6368L29.9893 47.111L31.347 47.6368C31.5025 47.6971 31.6647 47.7267 31.8257 47.7267C32.1003 47.7267 32.3717 47.6407 32.6017 47.4735C32.9666 47.2083 33.1696 46.7811 33.1446 46.3308L33.0641 44.8772L33.9836 43.7484C34.2686 43.3988 34.3556 42.9337 34.2161 42.5047ZM31.595 43.8974C31.3864 44.1533 31.2814 44.4758 31.2996 44.8059L31.3521 45.754L30.4662 45.4109C30.1587 45.2918 29.8198 45.2918 29.512 45.4109C29.5119 45.4109 29.5117 45.411 29.5116 45.411L28.6263 45.754L28.6787 44.8061C28.6969 44.4764 28.5922 44.1538 28.3836 43.8977L27.7839 43.1617L28.7017 42.9186C29.0208 42.8341 29.2951 42.6349 29.4744 42.3574L29.9892 41.5595L30.5041 42.3577C30.6832 42.6349 30.9575 42.8341 31.2765 42.9186L32.1944 43.1617L31.595 43.8974Z" fill="#9ED087"/>
<path d="M23.8254 42.5045C23.6859 42.0755 23.3423 41.7504 22.9064 41.6351L21.499 41.2623L20.7096 40.039C20.465 39.6599 20.0496 39.4336 19.5985 39.4336C19.1475 39.4337 18.7322 39.66 18.4877 40.039L17.6983 41.2623L16.291 41.6351C15.855 41.7504 15.5114 42.0755 15.3719 42.5045C15.2325 42.9334 15.3193 43.3984 15.6043 43.7483L16.5239 44.8771L16.4435 46.3305C16.4185 46.781 16.6214 47.2082 16.9863 47.4734C17.3512 47.7387 17.8205 47.7994 18.2412 47.6368L19.5988 47.111L20.9565 47.6368C21.112 47.6971 21.2741 47.7267 21.4352 47.7267C21.7097 47.7267 21.9812 47.6407 22.2111 47.4736C22.576 47.2084 22.779 46.7812 22.7541 46.3308L22.6735 44.8772L23.5931 43.7484C23.8779 43.3985 23.9647 42.9335 23.8254 42.5045ZM21.204 43.8976C20.9955 44.1534 20.8907 44.4759 20.9088 44.8058L20.9613 45.7539L20.0755 45.4107C19.9217 45.3512 19.7601 45.3214 19.5985 45.3214C19.4369 45.3214 19.2753 45.3512 19.1215 45.4107C19.1214 45.4107 19.1212 45.4109 19.1211 45.4109L18.2358 45.7539L18.2882 44.8059C18.3064 44.4763 18.2017 44.1537 17.9931 43.8976L17.3934 43.1616L18.3112 42.9185C18.6303 42.834 18.9046 42.6348 19.0839 42.3573L19.5987 41.5594L20.1138 42.3578C20.2929 42.6349 20.5672 42.834 20.886 42.9184L21.8038 43.1614L21.204 43.8976Z" fill="#9ED087"/>
<path d="M44.6282 42.5044C44.4889 42.0755 44.1452 41.7504 43.7092 41.6351L42.3018 41.2623L41.5124 40.039C41.2679 39.66 40.8525 39.4336 40.4015 39.4336C40.4015 39.4336 40.4014 39.4336 40.4013 39.4336C39.9502 39.4337 39.5349 39.6601 39.2906 40.039L38.5012 41.2623L37.0938 41.6351C36.6576 41.7504 36.3141 42.0756 36.1747 42.5046C36.0352 42.9336 36.1222 43.3986 36.407 43.7483L37.3266 44.8771L37.2461 46.3305C37.221 46.781 37.4241 47.2082 37.7889 47.4734C38.019 47.6406 38.2902 47.7266 38.5649 47.7266C38.7259 47.7266 38.8881 47.697 39.0436 47.6367L40.4014 47.1109L41.7592 47.6367C42.18 47.7996 42.649 47.7384 43.0137 47.4734C43.3786 47.2083 43.5816 46.7811 43.5568 46.3305L43.4763 44.8768L44.3959 43.7481C44.6808 43.3984 44.7678 42.9334 44.6282 42.5044ZM42.0067 43.8979C41.7985 44.1538 41.6937 44.4761 41.7119 44.8058L41.7644 45.7539L40.8784 45.4107C40.7247 45.3512 40.5631 45.3214 40.4014 45.3214C40.2398 45.3214 40.0782 45.3512 39.9244 45.4107C39.9243 45.4107 39.9242 45.4109 39.9241 45.4109L39.0385 45.7539L39.091 44.8055C39.1091 44.4757 39.0043 44.1532 38.7958 43.8976L38.1961 43.1616L39.114 42.9185C39.4331 42.834 39.7073 42.6348 39.8866 42.3573L40.4015 41.5594L40.9164 42.3575C41.0955 42.6348 41.3698 42.834 41.6888 42.9185L42.6066 43.1616L42.0067 43.8979Z" fill="#9ED087"/>
<path d="M33.2718 21.7227H26.7422C26.2568 21.7227 25.8633 22.1161 25.8633 22.6016C25.8633 23.0871 26.2568 23.4805 26.7422 23.4805H33.2718C33.7573 23.4805 34.1507 23.0871 34.1507 22.6016C34.1507 22.1161 33.7573 21.7227 33.2718 21.7227Z" fill="#9ED087"/>
</svg>
