<svg width="60" height="60" viewBox="0 0 60 60" fill="none" xmlns="http://www.w3.org/2000/svg">
<g clip-path="url(#clip0_2899_1461)">
<path d="M59.9998 10.2876C59.9998 10.281 59.999 10.2744 59.9988 10.2678C59.9981 10.2416 59.9965 10.2158 59.9935 10.1903C59.9923 10.1809 59.9906 10.1715 59.9892 10.1622C59.9856 10.1386 59.9813 10.1154 59.9759 10.0927C59.9738 10.0837 59.9715 10.0748 59.969 10.0657C59.9622 10.041 59.9545 10.0167 59.9456 9.99284C59.9439 9.98827 59.9429 9.98358 59.9411 9.97913L57.5569 3.87578C57.3166 3.26078 56.7345 2.86328 56.0742 2.86328H51.7331C51.2599 2.86328 50.8763 3.24684 50.8763 3.72004C50.8763 4.19324 51.2599 4.57679 51.7331 4.57679H55.9912L57.8886 9.43409H39.9502L38.8263 4.57679H45.4513C45.9245 4.57679 46.308 4.19324 46.308 3.72004C46.308 3.24684 45.9245 2.86328 45.4513 2.86328H37.7487H29.1158H10.7902C10.1297 2.86328 9.54777 3.26078 9.30741 3.87601L6.92324 9.97913C6.92148 9.9837 6.92054 9.98838 6.91879 9.99284C6.90988 10.0166 6.90215 10.0409 6.89535 10.0657C6.89289 10.0748 6.89054 10.0837 6.88843 10.0927C6.88304 10.1155 6.87871 10.1387 6.87519 10.1622C6.87379 10.1715 6.87203 10.1809 6.87086 10.1903C6.86793 10.2158 6.86629 10.2416 6.86558 10.2678C6.86547 10.2743 6.86465 10.2809 6.86453 10.2876C6.86453 10.2886 6.86441 10.2897 6.86441 10.2907V22.8778C6.86441 23.351 7.24797 23.7346 7.72117 23.7346C8.19437 23.7346 8.57792 23.351 8.57792 22.8778V11.1476H26.7387V24.1704C26.7387 24.6797 27.0387 25.1437 27.5031 25.3527C27.6731 25.4292 27.8542 25.4666 28.0341 25.4666C28.3453 25.4666 28.6532 25.3548 28.8946 25.1408L33.4322 21.1208L37.9698 25.1407C38.3508 25.4785 38.8971 25.5616 39.3615 25.3527C39.8258 25.1436 40.1258 24.6797 40.1258 24.1704V11.1476H58.2864V49.576C58.2864 50.1908 57.7862 50.691 57.1714 50.691H41.4621C41.4621 50.6813 41.4609 50.6716 41.4608 50.6619C41.4599 50.585 41.457 50.5082 41.4505 50.4321C42.9255 50.8231 44.5016 50.065 45.0927 48.6154C45.4036 47.8529 45.399 47.015 45.0797 46.2561C45.0495 46.1846 45.0164 46.1152 44.9815 46.0469C44.975 46.0344 44.9688 46.0217 44.9623 46.0093C44.928 45.9441 44.8915 45.8805 44.8529 45.8185C44.8454 45.8064 44.8377 45.7947 44.83 45.7828C44.7893 45.7191 44.747 45.6567 44.7018 45.5966C44.701 45.5954 44.7001 45.5943 44.6993 45.5933C44.6545 45.5339 44.6072 45.4767 44.5583 45.4208C44.5494 45.4106 44.5406 45.4003 44.5316 45.3901C44.4832 45.3362 44.4329 45.284 44.3809 45.2337C44.3707 45.2239 44.3604 45.2144 44.35 45.2048C44.2956 45.1536 44.2398 45.1038 44.1816 45.0568C44.1797 45.0553 44.1777 45.0537 44.1757 45.0522C44.1185 45.0062 44.0591 44.9626 43.9985 44.9206C43.9876 44.913 43.9768 44.9053 43.9657 44.8978C43.9051 44.857 43.843 44.8184 43.7792 44.7818C43.774 44.7787 43.7691 44.7752 43.7638 44.7721C44.1259 44.4588 44.4117 44.0622 44.5978 43.6059C44.9087 42.8434 44.9041 42.0055 44.5848 41.2464C44.3054 40.5823 43.8143 40.0482 43.1852 39.7168C43.0953 39.6695 43.0026 39.6262 42.9074 39.5874L29.573 34.1503L35.7799 32.2291C37.2566 31.772 38.0883 30.197 37.6338 28.7184C37.4642 28.1665 37.128 27.701 36.6937 27.3608C36.0474 26.8544 35.1837 26.6258 34.327 26.8057C34.3229 26.8066 34.3189 26.8073 34.3148 26.8084C34.2674 26.8191 29.5091 27.889 24.5395 28.858C24.3191 28.901 24.1043 28.9425 23.8925 28.9833C23.7231 29.0159 23.556 29.048 23.392 29.0791C23.3449 29.0882 23.2977 29.0971 23.2509 29.106C22.9615 29.1609 22.6811 29.2135 22.4085 29.2642C22.2988 29.2846 22.19 29.3047 22.0831 29.3244C15.842 30.4741 14.0888 30.4948 13.6022 30.4289C13.6003 30.4287 13.5987 30.4284 13.5968 30.4281C13.5894 30.427 13.5822 30.426 13.5754 30.4249C13.5705 30.4241 13.5659 30.4233 13.5613 30.4226C13.558 30.422 13.5545 30.4214 13.5514 30.4209C13.521 30.4154 13.4973 30.4097 13.479 30.4042L13.3387 30.347L13.5136 29.918C13.6856 29.4961 13.6831 29.0325 13.5065 28.6126C13.4623 28.5076 13.4085 28.4085 13.3462 28.3161C13.1591 28.0392 12.8946 27.8236 12.5782 27.6946L7.97652 25.8183C7.55476 25.6461 7.09105 25.6488 6.67117 25.8254C6.25117 26.002 5.92527 26.3317 5.75324 26.7534L0.12626 40.5538C-0.228818 41.4246 0.19083 42.4218 1.06165 42.777L5.66348 44.6534C5.87359 44.7391 6.09098 44.7796 6.30508 44.7796C6.97808 44.7796 7.61722 44.3786 7.88664 43.718L7.92894 43.6143L8.98995 44.0469C8.99054 44.0471 8.99113 44.0475 8.99183 44.0477C10.0067 44.4615 10.9417 45.0519 11.751 45.7845C11.8982 45.9178 12.0412 46.0557 12.1798 46.1981C12.3184 46.3405 12.4525 46.4874 12.582 46.6386C12.6467 46.7142 12.7103 46.7909 12.7725 46.8686C13.9518 48.3391 15.4977 49.4926 17.243 50.2042L18.4367 50.6909H9.69308C9.07831 50.6909 8.57804 50.1907 8.57804 49.5759V47.408C8.57804 46.9348 8.19449 46.5513 7.72128 46.5513C7.24808 46.5513 6.86453 46.9348 6.86453 47.408V49.5759C6.86453 51.1355 8.13332 52.4044 9.69308 52.4044H22.6391L33.6759 56.9047C34.0558 57.0596 34.4489 57.1331 34.836 57.1329C36.0522 57.1329 37.2075 56.4081 37.6944 55.2141C37.8941 54.7244 37.9582 54.2125 37.9044 53.7204C38.4785 53.8028 39.0737 53.7272 39.6132 53.4943C40.1615 53.2574 40.616 52.8802 40.9387 52.4043H57.1715C58.7312 52.4043 60.0001 51.1355 60.0001 49.5758V10.2908C59.9999 10.2897 59.9998 10.2887 59.9998 10.2876ZM29.7969 4.57679H37.0674L38.1914 9.43409H28.673L29.7969 4.57679ZM26.9142 9.43409H8.97577L10.8732 4.57679H28.0382L26.9142 9.43409ZM38.4125 23.2436L34.2919 19.5932C34.0468 19.3761 33.7396 19.2676 33.4324 19.2676C33.1251 19.2676 32.8178 19.3761 32.5727 19.5932L28.4523 23.2436V11.1476H38.4125V23.2436ZM6.30297 43.0637L1.71591 41.1934L7.33691 27.408L11.924 29.2785L6.30297 43.0637ZM40.5316 48.2341L39.5483 47.8331C39.5478 47.8328 39.5474 47.8327 39.5469 47.8325C39.5465 47.8324 39.5462 47.8321 39.5458 47.832C39.5457 47.832 39.5456 47.8319 39.5455 47.8319L29.305 43.6564C28.8669 43.4778 28.3669 43.688 28.1882 44.1263C28.0094 44.5645 28.2198 45.0645 28.6581 45.2432L38.8988 49.4189C38.9416 49.4363 38.983 49.4557 39.0229 49.4769C39.0342 49.4828 39.0446 49.4901 39.0556 49.4963C39.0838 49.5123 39.112 49.5282 39.1386 49.5459C39.1514 49.5544 39.1631 49.5643 39.1755 49.5732C39.1991 49.5901 39.2231 49.6067 39.2454 49.625C39.2588 49.636 39.271 49.6483 39.284 49.6598C39.304 49.6775 39.3244 49.6946 39.3431 49.7133C39.3561 49.7262 39.3677 49.7404 39.3801 49.7538C39.3974 49.7723 39.4151 49.7905 39.4312 49.8099C39.4435 49.8248 39.4543 49.8406 39.466 49.856C39.4807 49.8752 39.4959 49.8941 39.5094 49.914C39.5208 49.9306 39.5305 49.9482 39.541 49.9652C39.5532 49.9849 39.5661 50.0042 39.5772 50.0245C39.5873 50.0428 39.5958 50.0619 39.605 50.0805C39.6149 50.1005 39.6255 50.1202 39.6344 50.1407C39.643 50.1604 39.6499 50.1808 39.6575 50.2008C39.6653 50.2211 39.6737 50.241 39.6805 50.2617C39.6873 50.2824 39.6924 50.3036 39.6982 50.3246C39.7039 50.3453 39.7104 50.3657 39.7152 50.3867C39.72 50.4079 39.723 50.4295 39.7269 50.4508C39.7308 50.4721 39.7352 50.4932 39.738 50.5148C39.7408 50.5364 39.7419 50.5581 39.7436 50.5798C39.7454 50.6016 39.748 50.6233 39.7487 50.6451C39.7494 50.6665 39.7483 50.6882 39.7481 50.7098C39.7479 50.7321 39.7482 50.7543 39.7468 50.7767C39.7455 50.7979 39.7424 50.8191 39.74 50.8403C39.7376 50.8632 39.7357 50.886 39.7319 50.9088C39.7285 50.9296 39.7233 50.9504 39.7189 50.9712C39.714 50.9943 39.7099 51.0174 39.7037 51.0404C39.6983 51.0606 39.691 51.0808 39.6846 51.101C39.6773 51.1239 39.6706 51.1469 39.6621 51.1695C39.6548 51.1851 39.6477 51.2008 39.641 51.2166C39.6395 51.2203 39.6386 51.224 39.6372 51.2275C39.5034 51.5365 39.2564 51.7821 38.9338 51.9214C38.5787 52.0746 38.1722 52.0799 37.8183 51.9356L36.0039 51.1958C35.9954 51.1924 35.9869 51.19 35.9784 51.1869C35.9699 51.183 35.9618 51.1785 35.9531 51.175L27.6239 47.7788C27.1855 47.6002 26.6857 47.8105 26.5071 48.2487C26.3284 48.6869 26.5387 49.1869 26.9769 49.3657L35.3061 52.7619C35.315 52.7655 35.324 52.7681 35.3331 52.7714C35.3412 52.7749 35.3487 52.7792 35.357 52.7825C36.056 53.0676 36.3929 53.8682 36.1079 54.5672C35.8228 55.2665 35.0225 55.6035 34.3232 55.3182L23.1323 50.7551C23.1319 50.7549 23.1314 50.7547 23.1309 50.7544L17.8903 48.6175C16.9678 48.2414 16.1112 47.7193 15.355 47.077C14.9012 46.6916 14.4837 46.263 14.1096 45.7966C13.7411 45.3371 13.3368 44.9086 12.9018 44.5147C11.9447 43.6483 10.8391 42.9502 9.63917 42.4609C9.63905 42.4609 9.63894 42.4607 9.63882 42.4607L8.5764 42.0276L10.6925 36.838L12.6921 31.9338L12.8397 31.9939C12.9785 32.0505 13.1766 32.1309 13.7096 32.1511C14.3754 32.1812 15.477 32.1117 17.4504 31.8329C18.7928 31.6433 20.4394 31.3691 22.3616 31.0154C22.409 31.0067 22.4559 30.9981 22.5038 30.9893C22.5936 30.9726 22.6845 30.9558 22.7756 30.9389C22.8465 30.9258 22.9178 30.9124 22.9896 30.8989C23.0714 30.8836 23.1536 30.8682 23.2363 30.8526C23.3241 30.8361 23.4129 30.8194 23.5022 30.8024C23.5737 30.7888 23.645 30.7753 23.7172 30.7616C23.8261 30.7408 23.9368 30.7196 24.0479 30.6983C24.1051 30.6873 24.1617 30.6765 24.2194 30.6655C24.3895 30.6327 24.5619 30.5994 24.7375 30.5653C29.6899 29.602 34.47 28.5299 34.6848 28.4816C34.7062 28.4771 34.7277 28.4746 34.7491 28.4714C35.2994 28.39 35.8386 28.7082 35.9965 29.2217C36.0519 29.4022 36.0583 29.5863 36.0234 29.7595C35.9467 30.1407 35.6696 30.4697 35.2737 30.5921L26.7797 33.2211C26.4339 33.3282 26.1927 33.6408 26.1771 34.0024C26.1614 34.3639 26.3745 34.6964 26.7096 34.833L42.2608 41.1741C42.5995 41.3122 42.8641 41.5739 43.0059 41.911C43.1477 42.2482 43.1498 42.6204 43.0117 42.9589C42.8735 43.2976 42.6119 43.5622 42.2748 43.704C42.1063 43.7748 41.929 43.8106 41.7514 43.8117C41.7488 43.8117 41.7463 43.8113 41.7437 43.8113C41.702 43.8113 41.6604 43.8097 41.6188 43.8058C41.6065 43.8046 41.5943 43.8021 41.582 43.8007C41.5502 43.7968 41.5185 43.7932 41.4869 43.7871C41.467 43.7832 41.4473 43.7773 41.4275 43.7727C41.4038 43.767 41.3801 43.7622 41.3566 43.7553C41.3324 43.7482 41.3086 43.7387 41.2847 43.7301C41.2657 43.7233 41.2463 43.7177 41.2276 43.7101L30.9859 39.534C30.5477 39.3553 30.0478 39.5656 29.8691 40.0039C29.6904 40.4421 29.9007 40.9421 30.339 41.1208L42.7556 46.1837C42.8403 46.2181 42.9204 46.2604 42.995 46.3096C43.219 46.4573 43.3944 46.6676 43.5007 46.9205C43.6248 47.2155 43.6419 47.5373 43.5516 47.84C43.5388 47.8832 43.5236 47.9261 43.5064 47.9684C43.4886 48.0121 43.4688 48.0544 43.4471 48.0952C43.3966 48.1901 43.3351 48.2759 43.2664 48.3541C43.2238 48.4026 43.1782 48.4478 43.1297 48.4893C43.1219 48.4959 43.1149 48.5034 43.107 48.5097C42.7944 48.7654 42.3764 48.8753 41.968 48.7928C41.8851 48.7761 41.8027 48.7523 41.7217 48.7192L40.5316 48.2341Z" fill="#9ED087"/>
</g>
<defs>
<clipPath id="clip0_2899_1461">
<rect width="60" height="60" fill="white"/>
</clipPath>
</defs>
</svg>
